<?xml version="1.0" encoding="iso-8859-1"?>
<!-- Generator: Adobe Illustrator 19.0.0, SVG Export Plug-In . SVG Version: 6.00 Build 0)  -->
<svg version="1.1" id="Layer_1" xmlns="http://www.w3.org/2000/svg" xmlns:xlink="http://www.w3.org/1999/xlink" x="0px" y="0px"
	 viewBox="0 0 512 512" style="enable-background:new 0 0 512 512;" xml:space="preserve">
<polygon style="fill:#E0E0E2;" points="19.692,165.045 19.692,323.911 335.826,506.431 492.308,414.866 492.308,256 
	335.826,346.955 "/>
<polygon style="fill:#C6C5CB;" points="304.869,352.128 48.95,204.418 48.95,340.808 304.869,488.696 "/>
<g>
	<polygon style="fill:#59A4FF;" points="59.077,333.733 59.077,210.218 118.154,244.326 118.156,367.668 	"/>
	<polygon style="fill:#59A4FF;" points="295.385,470.052 295.345,346.627 236.308,312.542 236.308,435.616 	"/>
	<polygon style="fill:#59A4FF;" points="137.846,392.128 137.846,255.695 216.615,301.172 216.617,437.693 	"/>
</g>
<polygon style="fill:#1D81CD;" points="175.945,414.166 178.518,415.654 178.518,279.177 175.945,277.692 "/>
<g>
	<path style="fill:#D8D8DA;" d="M182.695,367.056c-0.444,0-0.888-0.115-1.286-0.345c-0.795-0.46-1.286-1.308-1.286-2.228v-22.739
		c0-0.918,0.49-1.768,1.286-2.228l4.734-2.733c1.23-0.712,2.803-0.289,3.513,0.941c0.711,1.23,0.288,2.803-0.941,3.513l-3.448,1.992
		v16.799l0.876-0.506c1.23-0.712,2.803-0.289,3.513,0.941c0.711,1.23,0.288,2.803-0.941,3.513l-4.734,2.732
		C183.583,366.941,183.139,367.056,182.695,367.056z"/>
	<path style="fill:#D8D8DA;" d="M165.546,357.21c-0.444,0-0.888-0.115-1.286-0.345c-0.795-0.459-1.286-1.308-1.286-2.228v-22.739
		c0-0.918,0.49-1.768,1.286-2.228l4.733-2.733c1.231-0.711,2.802-0.288,3.513,0.941c0.711,1.23,0.288,2.803-0.941,3.513
		l-3.447,1.992v16.799l0.876-0.506c1.231-0.711,2.804-0.288,3.513,0.941c0.711,1.23,0.288,2.803-0.941,3.513l-4.733,2.732
		C166.435,357.095,165.99,357.21,165.546,357.21z"/>
</g>
<polygon style="fill:#C6C5CB;" points="335.826,346.955 492.308,256 492.308,414.866 335.826,506.431 "/>
<polygon style="fill:#4DBA69;" points="177.231,5.569 492.308,187.48 512,244.326 315.077,358.019 0,176.11 19.692,96.524 "/>
<polygon style="fill:#378B4F;" points="315.077,358.019 334.77,278.434 492.308,187.48 512,244.326 "/>
<polygon style="fill:#40A559;" points="19.692,96.524 334.77,278.434 315.077,358.019 0,176.11 "/>
<polygon style="fill:#2B743F;" points="59.077,96.524 177.231,28.308 452.923,187.48 334.77,255.695 "/>
<polygon style="fill:#E0E0E2;" points="271.433,177.927 331.233,143.401 391.034,177.927 391.034,204.174 331.233,238.7 
	271.433,204.174 "/>
<g>
	<path style="fill:#C6C5CB;" d="M315.558,168.882c-8.624,4.979-8.632,13.122-0.018,18.095c8.614,4.974,22.726,4.974,31.36,0
		s8.642-13.116,0.018-18.095C338.294,163.902,324.182,163.902,315.558,168.882z"/>
	<polygon style="fill:#C6C5CB;" points="271.433,177.927 271.433,204.174 331.233,238.7 331.233,212.452 	"/>
</g>
<polygon style="fill:#ACABB1;" points="331.233,238.7 391.034,204.174 391.034,177.927 331.233,212.452 "/>
<path style="fill:#C6C5CB;" d="M208.861,104.776V91.311l0,0c0.006-4.453-2.917-8.908-8.771-12.287
	c-11.705-6.758-30.86-6.758-42.564,0c-5.854,3.38-8.783,7.835-8.785,12.287l0,0v13.464l0,0c-0.007,4.453,2.912,8.907,8.761,12.284
	c11.691,6.75,30.846,6.75,42.564,0C205.927,113.682,208.859,109.229,208.861,104.776L208.861,104.776z"/>
<path style="fill:#E0E0E2;" d="M157.525,79.024c-11.705,6.758-11.716,17.81-0.025,24.56c11.691,6.75,30.846,6.75,42.564,0
	c11.718-6.75,11.73-17.803,0.025-24.56C188.384,72.266,169.23,72.266,157.525,79.024z"/>
<path style="fill:#C6C5CB;" d="M268.984,139.466v-13.464l0,0c0.006-4.453-2.917-8.908-8.771-12.287
	c-11.705-6.758-30.86-6.758-42.564,0c-5.854,3.38-8.783,7.835-8.785,12.287l0,0v13.464h0.001c-0.007,4.453,2.912,8.907,8.761,12.283
	c11.691,6.75,30.846,6.75,42.564,0C266.049,148.373,268.981,143.919,268.984,139.466L268.984,139.466z"/>
<path style="fill:#E0E0E2;" d="M217.647,113.714c-11.705,6.758-11.716,17.81-0.025,24.56c11.691,6.75,30.846,6.75,42.564,0
	c11.718-6.75,11.73-17.803,0.025-24.56C248.506,106.955,229.352,106.955,217.647,113.714z"/>
<path style="fill:#378B4F;" d="M78.77,107.894c0.532-0.075,98.462-56.847,98.462-56.847V28.308L59.077,96.524L78.77,107.894z"/>
<polygon style="fill:#40A559;" points="177.231,51.047 433.231,198.849 452.923,187.48 177.231,28.308 "/>
<g>
	<polygon style="fill:#2487FF;" points="374.155,346.65 374.155,392.128 413.388,369.477 413.388,323.999 	"/>
	<polygon style="fill:#2487FF;" points="433.263,312.524 433.263,358.002 472.496,335.35 472.496,289.873 	"/>
</g>
<polygon style="fill:#E0E0E2;" points="78.77,95.645 78.77,186.398 256,288.723 266.982,282.464 266.982,191.509 90.103,89.388 "/>
<polygon style="fill:#C6C5CB;" points="256,288.723 266.982,282.464 266.982,191.509 256,197.768 "/>
<polygon style="fill:#FFFFFF;" points="78.77,95.645 90.103,89.388 266.982,191.509 256,197.768 "/>
<g>
	<polygon style="fill:#ACABB1;" points="126.111,385.398 128.683,386.883 128.683,250.438 126.111,248.953 	"/>
	<polygon style="fill:#ACABB1;" points="225.135,442.621 227.708,444.107 227.708,307.592 225.135,306.107 	"/>
</g>
<g>
	<polygon style="fill:#40A559;" points="129.362,146.075 137.885,185.744 189.219,215.382 188.343,219.838 137.87,190.698 
		137.857,195.66 187.467,224.302 191.777,226.791 200.858,179.906 211.335,185.955 211.349,180.993 198.409,173.521 
		195.681,184.364 	"/>
	<path style="fill:#40A559;" d="M187.435,235.454c0.009-3.425-2.396-7.592-5.377-9.313c-2.98-1.721-5.402-0.341-5.412,3.084
		c-0.009,3.416,2.396,7.583,5.377,9.304l0,0C185.003,240.25,187.425,238.87,187.435,235.454z"/>
	<path style="fill:#40A559;" d="M152.925,215.531c0.009-3.425-2.397-7.592-5.377-9.313c-2.973-1.716-5.394-0.336-5.404,3.089
		c-0.009,3.415,2.396,7.583,5.369,9.298h0.001C150.494,220.326,152.915,218.945,152.925,215.531z"/>
</g>
<g>
</g>
<g>
</g>
<g>
</g>
<g>
</g>
<g>
</g>
<g>
</g>
<g>
</g>
<g>
</g>
<g>
</g>
<g>
</g>
<g>
</g>
<g>
</g>
<g>
</g>
<g>
</g>
<g>
</g>
</svg>
