<?xml version="1.0" encoding="iso-8859-1"?>
<!-- Generator: Adobe Illustrator 19.0.0, SVG Export Plug-In . SVG Version: 6.00 Build 0)  -->
<svg version="1.1" id="Layer_1" xmlns="http://www.w3.org/2000/svg" xmlns:xlink="http://www.w3.org/1999/xlink" x="0px" y="0px"
	 viewBox="0 0 512 512" style="enable-background:new 0 0 512 512;" xml:space="preserve">
<g>
	<polygon style="fill:#2E2E30;" points="200.348,474.876 255.514,506.725 512,359.204 456.348,327.074 	"/>
	<polygon style="fill:#2E2E30;" points="0,359.204 55.166,391.055 311.652,243.533 256,211.403 	"/>
</g>
<polygon style="fill:#ACABB1;" points="144.695,185.699 144.695,327.074 133.565,333.5 100.174,314.221 100.174,172.846 
	111.305,166.42 "/>
<polygon style="fill:#898890;" points="144.695,185.699 133.565,192.124 133.565,333.5 144.695,327.074 "/>
<polygon style="fill:#ACABB1;" points="89.043,217.829 89.043,359.204 77.913,365.631 44.522,346.353 44.522,204.977 55.652,198.55 
	"/>
<polygon style="fill:#898890;" points="89.043,217.829 77.913,224.256 77.913,365.631 89.043,359.204 "/>
<polygon style="fill:#891D00;" points="133.565,230.289 133.565,333.5 89.043,359.204 89.043,256.386 "/>
<polygon style="fill:#AD2201;" points="133.565,230.289 100.174,211.403 89.043,217.829 89.043,256.386 "/>
<polygon style="fill:#C6C5CB;" points="144.695,172.566 144.695,185.699 77.913,224.256 77.913,210.913 "/>
<polygon style="fill:#E0E0E2;" points="111.305,153.287 144.695,172.566 77.913,210.913 44.522,191.843 "/>
<polygon style="fill:#D8D8DA;" points="44.522,191.843 44.522,204.977 77.913,224.256 77.913,210.913 "/>
<polygon style="fill:#ACABB1;" points="267.131,114.8 267.131,256.176 256,262.603 222.609,243.324 222.609,101.949 233.739,95.522 
	"/>
<polygon style="fill:#898890;" points="267.131,114.8 256,121.227 256,262.603 267.131,256.176 "/>
<polygon style="fill:#ACABB1;" points="211.478,146.932 211.478,288.307 200.348,294.733 166.957,275.454 166.957,134.079 
	178.087,127.653 "/>
<polygon style="fill:#898890;" points="211.478,146.932 200.348,153.358 200.348,294.733 211.478,288.307 "/>
<polygon style="fill:#891D00;" points="256,159.392 256,262.603 211.478,288.307 211.478,185.488 "/>
<polygon style="fill:#AD2201;" points="256,159.392 222.609,140.505 211.478,146.932 211.478,185.488 "/>
<polygon style="fill:#C6C5CB;" points="267.131,101.668 267.131,114.8 200.348,153.358 200.348,140.014 "/>
<polygon style="fill:#E0E0E2;" points="233.739,82.389 267.131,101.668 200.348,140.014 166.957,120.946 "/>
<polygon style="fill:#D8D8DA;" points="166.957,120.946 166.957,134.079 200.348,153.358 200.348,140.014 "/>
<polygon style="fill:#ACABB1;" points="467.478,230.471 467.478,371.847 456.348,378.273 422.957,358.995 422.957,217.619 
	434.087,211.194 "/>
<polygon style="fill:#898890;" points="467.478,230.471 456.348,236.898 456.348,378.273 467.478,371.847 "/>
<polygon style="fill:#ACABB1;" points="411.826,262.603 411.826,403.978 400.695,410.404 367.304,391.125 367.304,249.75 
	378.435,243.324 "/>
<polygon style="fill:#898890;" points="411.826,262.603 400.695,269.028 400.695,410.404 411.826,403.978 "/>
<polygon style="fill:#891D00;" points="456.348,275.062 456.348,378.273 411.826,403.978 411.826,301.159 "/>
<polygon style="fill:#AD2201;" points="456.348,275.062 422.957,256.176 411.826,262.603 411.826,301.159 "/>
<polygon style="fill:#C6C5CB;" points="467.478,217.338 467.478,230.471 400.695,269.028 400.695,255.685 "/>
<polygon style="fill:#E0E0E2;" points="434.087,198.06 467.478,217.338 400.695,255.685 367.304,236.617 "/>
<polygon style="fill:#D8D8DA;" points="367.304,236.617 367.304,249.75 400.695,269.028 400.695,255.685 "/>
<g>
	<path style="fill:#E0E0E2;" d="M376.249,246.704v-0.009h-0.001c-0.004-1.322-0.87-2.644-2.605-3.651
		c-3.478-2.019-9.178-2.023-12.665-0.009c-1.744,1.006-2.617,2.333-2.618,3.66l0,0v173.538l0,0c-0.001,1.326,0.868,2.652,2.61,3.657
		c3.483,2.011,9.183,2.015,12.665,0.009c1.747-1.006,2.618-2.336,2.614-3.667l0,0V246.71
		C376.249,246.708,376.249,246.706,376.249,246.704z"/>
	<path style="fill:#E0E0E2;" d="M175.901,130.579v-0.009H175.9c-0.004-1.322-0.87-2.644-2.605-3.651
		c-3.478-2.019-9.178-2.023-12.665-0.009c-1.744,1.006-2.617,2.333-2.618,3.66l0,0v173.538l0,0c-0.001,1.326,0.868,2.652,2.61,3.657
		c3.483,2.011,9.183,2.015,12.665,0.009c1.747-1.006,2.618-2.336,2.614-3.667l0,0V130.586
		C175.901,130.583,175.901,130.581,175.901,130.579z"/>
</g>
<polygon style="fill:#ACABB1;" points="345.043,301.369 345.043,442.745 333.913,449.171 300.522,429.893 300.522,288.517 
	311.652,282.091 "/>
<polygon style="fill:#898890;" points="345.043,301.369 333.913,307.795 333.913,449.171 345.043,442.745 "/>
<polygon style="fill:#ACABB1;" points="289.391,333.5 289.391,474.876 278.261,481.302 244.869,462.023 244.869,320.648 
	256,314.221 "/>
<polygon style="fill:#898890;" points="289.391,333.5 278.261,339.927 278.261,481.302 289.391,474.876 "/>
<polygon style="fill:#891D00;" points="333.913,345.96 333.913,449.171 289.391,474.876 289.391,372.057 "/>
<polygon style="fill:#AD2201;" points="333.913,345.96 300.522,327.074 289.391,333.5 289.391,372.057 "/>
<polygon style="fill:#C6C5CB;" points="345.043,288.237 345.043,301.369 278.261,339.927 278.261,326.583 "/>
<polygon style="fill:#E0E0E2;" points="311.652,268.958 345.043,288.237 278.261,326.583 244.869,307.514 "/>
<polygon style="fill:#D8D8DA;" points="244.869,307.514 244.869,320.648 278.261,339.927 278.261,326.583 "/>
<polygon style="fill:#AD2201;" points="11.131,159.994 278.261,314.221 500.869,185.208 500.869,159.504 233.739,5.275 
	11.131,134.29 "/>
<polygon style="fill:#CD2A01;" points="11.131,134.29 278.261,288.517 500.869,159.504 233.739,5.275 "/>
<polygon style="fill:#891D00;" points="278.261,288.517 278.261,314.221 500.869,185.208 500.869,159.504 "/>
<polygon style="fill:#C6C5CB;" points="278.261,298.99 278.261,308.985 500.869,179.971 500.869,169.977 "/>
<polygon style="fill:#D8D8DA;" points="278.261,298.99 278.261,308.985 11.131,154.512 11.131,144.517 "/>
<g>
</g>
<g>
</g>
<g>
</g>
<g>
</g>
<g>
</g>
<g>
</g>
<g>
</g>
<g>
</g>
<g>
</g>
<g>
</g>
<g>
</g>
<g>
</g>
<g>
</g>
<g>
</g>
<g>
</g>
</svg>
